<svg width="255.10226440429685" height="68.02640528885203" viewBox="0 0 300 79.9989825033943" class="looka-1j8o68f"><defs id="SvgjsDefs2447"></defs><g id="SvgjsG2448" featurekey="4K7G0D-0" transform="matrix(1.0103432962245769,0,0,1.0103432962245769,-7.991813391893346,-7.990803603595269)" fill="#264e86"><path xmlns="http://www.w3.org/2000/svg" d="M77.157,29.962l-8.131-0.06c-2.196,0-3.982-1.871-3.982-4.172l-0.006-7.888c0-5.477-4.541-9.933-10.122-9.933H40.084  c-5.581,0-10.123,4.456-10.123,9.933l0.053,22.785c0,5.043,3.853,9.219,8.82,9.848H55.47c1.831,0.205,3.301,1.545,3.617,3.263  v23.419c0,2.195-1.872,3.981-4.172,3.981H40.084c-2.3,0-4.172-1.786-4.172-3.981v-9.306c-0.549-4.699-4.453-8.411-9.297-8.765  h-8.772c-2.196,0-3.982-1.871-3.982-4.172v-14.83c0-2.301,1.786-4.172,3.982-4.172h6.168v-5.951h-6.168  c-5.478,0-9.933,4.541-9.933,10.123v14.83c0,5.582,4.455,10.123,9.933,10.123h8.51c1.825,0.207,3.29,1.542,3.608,3.252v8.867  c0,5.477,4.542,9.933,10.123,9.933h14.831c5.581,0,10.122-4.456,10.122-9.933V60.596h0.067l-0.067-7.294  c-0.544-4.709-4.457-8.43-9.313-8.777H39.282c-1.892-0.377-3.316-1.98-3.316-3.896l-0.053-22.785c0-2.195,1.872-3.981,4.172-3.981  h14.831c2.3,0,4.172,1.786,4.172,3.981l0.005,7.888c0,5.581,4.457,10.123,9.934,10.123l8.131,0.06c2.195,0,3.982,1.871,3.982,4.172  v14.83c0,2.301-1.787,4.172-3.982,4.172h-6.168v5.951h6.168c5.477,0,9.933-4.541,9.933-10.123v-14.83  C87.089,34.503,82.633,29.962,77.157,29.962z"></path></g></svg>