<?xml version="1.0" encoding="utf-8"?>
<!-- Generator: Adobe Illustrator 25.4.1, SVG Export Plug-In . SVG Version: 6.00 Build 0)  -->
<svg version="1.1" id="Layer_1" xmlns="http://www.w3.org/2000/svg" xmlns:xlink="http://www.w3.org/1999/xlink" x="0px" y="0px"
	 viewBox="0 0 255.1 68" style="enable-background:new 0 0 255.1 68;" xml:space="preserve">
<style type="text/css">
	.st0{fill:#8842F0;}
	.st1{fill:#1C1B1F;}
</style>
<g id="SvgjsG2448" transform="matrix(1.0103432962245769,0,0,1.0103432962245769,-7.991813391893346,-7.990803603595269)">
	<path class="st0" d="M66.8,26.7l-6.9-0.1c-1.9,0-3.4-1.6-3.4-3.5l0-6.7c0-4.7-3.9-8.4-8.6-8.4H35.3c-4.7,0-8.6,3.8-8.6,8.4l0,19.4
		c0,4.3,3.3,7.8,7.5,8.4h14.1c1.6,0.2,2.8,1.3,3.1,2.8v19.9c0,1.9-1.6,3.4-3.5,3.4H35.3c-2,0-3.5-1.5-3.5-3.4v-7.9
		c-0.5-4-3.8-7.2-7.9-7.5h-7.5c-1.9,0-3.4-1.6-3.4-3.5V35.3c0-2,1.5-3.5,3.4-3.5h5.2v-5.1h-5.2c-4.7,0-8.4,3.9-8.4,8.6v12.6
		c0,4.7,3.8,8.6,8.4,8.6h7.2c1.6,0.2,2.8,1.3,3.1,2.8v7.5c0,4.7,3.9,8.4,8.6,8.4h12.6c4.7,0,8.6-3.8,8.6-8.4V52.7h0.1l-0.1-6.2
		c-0.5-4-3.8-7.2-7.9-7.5h-14c-1.6-0.3-2.8-1.7-2.8-3.3l0-19.4c0-1.9,1.6-3.4,3.5-3.4h12.6c2,0,3.5,1.5,3.5,3.4l0,6.7
		c0,4.7,3.8,8.6,8.4,8.6l6.9,0.1c1.9,0,3.4,1.6,3.4,3.5v12.6c0,2-1.5,3.5-3.4,3.5h-5.2v5.1h5.2c4.7,0,8.4-3.9,8.4-8.6V35.3
		C75.2,30.5,71.5,26.7,66.8,26.7z"/>
</g>
<g id="SvgjsG2449" transform="matrix(4.168403209815491,0,0,4.168403209815491,98.33264030619344,-21.59316550680691)">
	<path class="st1" d="M7,17.8l-0.9-2.1H0.3l-0.9,2.1h-2.6L2.1,5.9h2.2l5.3,11.9C9.6,17.8,7,17.8,7,17.8z M1.2,13.6h4l-2-4.7
		L1.2,13.6z M14.8,7.6c-0.8,0-0.9,0.7-0.9,1v0.3h2v2h-2v6.8h-2.4v-6.8h-1.2v-2h1.2V8.6c0-2.7,1.9-3,3-3c0.8,0,1.6,0.2,2.2,0.6
		l-0.8,1.7C15.5,7.7,15.2,7.6,14.8,7.6z M24.9,8.9h2.4L21.9,21h-2.4l1.6-3.5l-3.8-8.6h2.4l2.6,6L24.9,8.9z M35.2,8.9h2.4v8.8h-2.4
		v-1.1c-0.1,0.4-0.9,1.3-2.4,1.3c-2,0-4.4-1.5-4.4-4.6c0-3,2.3-4.6,4.4-4.6c1.5,0,2.4,1,2.4,1.1C35.2,9.9,35.2,8.9,35.2,8.9z
		 M33.1,15.8c1.2,0,2.2-0.8,2.2-2.4c0-1.6-1-2.4-2.2-2.4c-1.2,0-2.3,0.8-2.3,2.4C30.7,15,31.8,15.8,33.1,15.8z"/>
</g>
</svg>
