<svg width="255.10226440429685" height="68.02640528885203" viewBox="0 0 300 79.9989825033943" class="looka-1j8o68f"><defs id="SvgjsDefs2447"></defs><g id="SvgjsG2448" featurekey="4K7G0D-0" transform="matrix(1.0103432962245769,0,0,1.0103432962245769,-7.991813391893346,-7.990803603595269)" fill="#8842F0"><path xmlns="http://www.w3.org/2000/svg" d="M77.157,29.962l-8.131-0.06c-2.196,0-3.982-1.871-3.982-4.172l-0.006-7.888c0-5.477-4.541-9.933-10.122-9.933H40.084  c-5.581,0-10.123,4.456-10.123,9.933l0.053,22.785c0,5.043,3.853,9.219,8.82,9.848H55.47c1.831,0.205,3.301,1.545,3.617,3.263  v23.419c0,2.195-1.872,3.981-4.172,3.981H40.084c-2.3,0-4.172-1.786-4.172-3.981v-9.306c-0.549-4.699-4.453-8.411-9.297-8.765  h-8.772c-2.196,0-3.982-1.871-3.982-4.172v-14.83c0-2.301,1.786-4.172,3.982-4.172h6.168v-5.951h-6.168  c-5.478,0-9.933,4.541-9.933,10.123v14.83c0,5.582,4.455,10.123,9.933,10.123h8.51c1.825,0.207,3.29,1.542,3.608,3.252v8.867  c0,5.477,4.542,9.933,10.123,9.933h14.831c5.581,0,10.122-4.456,10.122-9.933V60.596h0.067l-0.067-7.294  c-0.544-4.709-4.457-8.43-9.313-8.777H39.282c-1.892-0.377-3.316-1.98-3.316-3.896l-0.053-22.785c0-2.195,1.872-3.981,4.172-3.981  h14.831c2.3,0,4.172,1.786,4.172,3.981l0.005,7.888c0,5.581,4.457,10.123,9.934,10.123l8.131,0.06c2.195,0,3.982,1.871,3.982,4.172  v14.83c0,2.301-1.787,4.172-3.982,4.172h-6.168v5.951h6.168c5.477,0,9.933-4.541,9.933-10.123v-14.83  C87.089,34.503,82.633,29.962,77.157,29.962z"></path></g><g id="SvgjsG2449" featurekey="wPuqcM-0" transform="matrix(4.168403209815491,0,0,4.168403209815491,98.33264030619344,-21.59316550680691)" fill="#000000"><path d="M12.38 20 l-1.06 -2.5 l-6.76 0 l-1.06 2.5 l-3.1 0 l6.22 -14 l2.64 0 l6.24 14 l-3.12 0 z M5.58 15.120000000000001 l4.72 0 l-2.36 -5.54 z M21.58 8.02 c-0.94 0 -1.04 0.78 -1.04 1.18 l0 0.4 l2.32 0 l0 2.36 l-2.32 0 l0 8.04 l-2.86 0 l0 -8.04 l-1.38 0 l0 -2.36 l1.38 0 l0 -0.4 c0 -3.12 2.28 -3.54 3.56 -3.54 c0.98 0 1.92 0.22 2.64 0.68 l-0.98 1.98 c-0.56 -0.22 -0.82 -0.3 -1.32 -0.3 z M33.440000000000005 9.56 l2.86 0 l-6.36 14.24 l-2.86 0 l1.9 -4.16 l-4.5 -10.08 l2.86 0 l3.04 7 z M45.52 9.6 l2.86 0 l0 10.4 l-2.86 0 l0 -1.28 c-0.06 0.42 -1.08 1.48 -2.88 1.48 c-2.38 0 -5.14 -1.72 -5.14 -5.42 c0 -3.58 2.76 -5.36 5.14 -5.36 c1.8 0 2.82 1.12 2.88 1.34 l0 -1.16 z M43.040000000000006 17.66 c1.4 0 2.62 -0.96 2.62 -2.88 c0 -1.86 -1.22 -2.82 -2.62 -2.82 c-1.44 0 -2.76 0.98 -2.76 2.82 c0 1.9 1.32 2.88 2.76 2.88 z"></path></g></svg>