<svg width="84" height="84" viewBox="0 0 84 84" fill="none" xmlns="http://www.w3.org/2000/svg">
<path id="medical_information" d="M21.1667 67.0002H29.5V58.6668H37.8334V50.3335H29.5V42.0002H21.1667V50.3335H12.8334V58.6668H21.1667V67.0002ZM46.1667 52.4168H71.1667V46.1668H46.1667V52.4168ZM46.1667 64.9168H62.8334V58.6668H46.1667V64.9168ZM8.66671 83.6668C6.37504 83.6668 4.41393 82.8515 2.78337 81.221C1.15004 79.5877 0.333374 77.6252 0.333374 75.3335V29.5002C0.333374 27.2085 1.15004 25.246 2.78337 23.6127C4.41393 21.9821 6.37504 21.1668 8.66671 21.1668H29.5V8.66683C29.5 6.37516 30.3167 4.41266 31.95 2.77933C33.5806 1.14877 35.5417 0.333496 37.8334 0.333496H46.1667C48.4584 0.333496 50.4209 1.14877 52.0542 2.77933C53.6848 4.41266 54.5 6.37516 54.5 8.66683V21.1668H75.3334C77.625 21.1668 79.5875 21.9821 81.2209 23.6127C82.8514 25.246 83.6667 27.2085 83.6667 29.5002V75.3335C83.6667 77.6252 82.8514 79.5877 81.2209 81.221C79.5875 82.8515 77.625 83.6668 75.3334 83.6668H8.66671ZM8.66671 75.3335H75.3334V29.5002H54.5C54.5 31.7918 53.6848 33.7529 52.0542 35.3835C50.4209 37.0168 48.4584 37.8335 46.1667 37.8335H37.8334C35.5417 37.8335 33.5806 37.0168 31.95 35.3835C30.3167 33.7529 29.5 31.7918 29.5 29.5002H8.66671V75.3335ZM37.8334 29.5002H46.1667V8.66683H37.8334V29.5002Z" fill="#262626"/>
</svg>
